<?xml version="1.0" encoding="UTF-8"?>
<svg width="84px" height="84px" viewBox="0 0 84 84" version="1.1" xmlns="http://www.w3.org/2000/svg" xmlns:xlink="http://www.w3.org/1999/xlink">
    <title>Actions / Navigation / overflow-menu--horizontal / 24@2x</title>
    <g id="I-need-Raiders" stroke="none" stroke-width="1" fill="none" fill-rule="evenodd">
        <g id="Comoplete" transform="translate(-759.000000, -366.000000)">
            <g id="Group-2" transform="translate(573.000000, 360.000000)">
                <g id="Group" transform="translate(6.000000, 0.000000)">
                    <g id="Actions-/-Navigation-/-overflow-menu--horizontal-/-24" transform="translate(180.000000, 6.000000)">
                        <path d="M42,0 C18.8040405,0 0,18.8040405 0,42 C0,65.1959595 18.8040405,84 42,84 C65.1959595,84 84,65.1959595 84,42 C84,30.8609074 79.5750127,20.1780431 71.6984848,12.3015152 C63.8219569,4.4249873 53.1390926,0 42,0 Z M36,58.7724 L21,43.7724 L25.7718,39 L36,49.2276 L58.23,27 L63.0171,31.7577 L36,58.7724 Z" id="Fill" fill="#A8D486"></path>
                        <polygon id="Inner-Fill" fill="#000000" opacity="0" points="36 58.773 21 43.773 25.773 39 36 49.227 58.23 27 63.015 31.755"></polygon>
                    </g>
                </g>
            </g>
        </g>
    </g>
</svg>