<?xml version="1.0" encoding="UTF-8"?>
<svg width="28px" height="28px" viewBox="0 0 28 28" version="1.1" xmlns="http://www.w3.org/2000/svg" xmlns:xlink="http://www.w3.org/1999/xlink">
    <title>Brand / Social / logo--twitter / 24@2x</title>
    <g id="Login" stroke="none" stroke-width="1" fill="none" fill-rule="evenodd">
        <g id="Verify-Ownership" transform="translate(-652.000000, -556.000000)">
            <g id="Button-/-Large-/-Green-/-01-enabled" transform="translate(592.000000, 534.000000)">
                <g id="Group" transform="translate(58.000000, 20.000000)">
                    <g id="Brand-/-Social-/-logo--twitter-/-24" transform="translate(2.000000, 2.000000)">
                        <path d="M14,0 C6.2680135,0 0,6.2680135 0,14 C0,21.7319865 6.2680135,28 14,28 C21.7319865,28 28,21.7319865 28,14 C28,10.2869691 26.5250042,6.72601436 23.8994949,4.10050506 C21.2739856,1.47499577 17.7130309,0 14,0 Z M12,19.5908 L7,14.5908 L8.5906,13 L12,16.4092 L19.41,9 L21.0057,10.5859 L12,19.5908 Z" id="Fill" fill="#A8D486"></path>
                        <polygon id="Inner-Fill" fill="#000000" opacity="0" points="12 19.591 7 14.591 8.591 13 12 16.409 19.41 9 21.005 10.585"></polygon>
                    </g>
                </g>
            </g>
        </g>
    </g>
</svg>