<?xml version="1.0" encoding="UTF-8"?>
<svg width="216px" height="46px" viewBox="0 0 216 46" version="1.1" xmlns="http://www.w3.org/2000/svg" xmlns:xlink="http://www.w3.org/1999/xlink">
    <title>Logo@2x</title>
    <g id="Symbols" stroke="none" stroke-width="1" fill="none" fill-rule="evenodd">
        <g id="Logo" fill-rule="nonzero">
            <g id="Group" fill="#A8D486">
                <path d="M0,42 L0,27.4667897 C-2.705415e-16,25.2576507 1.790861,23.4667897 4,23.4667897 L8.4953271,23.4667897 L8.4953271,23.4667897 L8.4953271,31.8053506 L7.04439252,30.6595941 C7.2546729,29.4572571 7.58411215,28.3822263 8.03271028,27.4345018 C8.48130841,26.4867774 9.04556075,25.6840406 9.72546729,25.0262915 C10.4053738,24.3685424 11.1904206,23.8663899 12.0806075,23.5198339 C12.9707944,23.173278 13.9626168,23 15.0560748,23 C15.9672897,23 16.6577103,23.0601169 17.1273364,23.1803506 C17.5969626,23.3005843 17.8878505,23.396064 18,23.4667897 L16.8434579,30.9354244 C16.7172897,30.8646986 16.4369159,30.7550738 16.0023364,30.6065498 C15.567757,30.4580258 15.0420561,30.3837638 14.4252336,30.3837638 C13.3317757,30.3837638 12.4065421,30.5570418 11.6495327,30.9035978 C10.8925234,31.2501538 10.2827103,31.7169434 9.82009346,32.3039668 C9.35747664,32.8909902 9.02102804,33.5487392 8.81074766,34.277214 C8.60046729,35.0056888 8.4953271,35.7447724 8.4953271,36.4944649 L8.4953271,46 L4,46 C1.790861,46 2.705415e-16,44.209139 0,42 Z" id="Path"></path>
                <path d="M28.5662252,46 C26.9304636,46 25.4668874,45.7364621 24.1754967,45.2093863 C22.884106,44.6823105 21.8653422,43.9169675 21.1192053,42.9133574 C20.3730684,41.9097473 20,40.6859206 20,39.2418773 C20,37.5379061 20.4842715,36.166065 21.4528146,35.1263538 C22.4213576,34.0866426 23.6625276,33.299639 25.1763245,32.765343 C26.6901214,32.2310469 28.2577263,31.8916968 29.8791391,31.7472924 C32.1892936,31.5306859 33.7461369,31.3429603 34.5496689,31.1841155 C35.3532009,31.0252708 35.7549669,30.7436823 35.7549669,30.3393502 C35.7549669,30.3393502 35.7549669,30.3357401 35.7549669,30.3285199 C35.7549669,30.3212996 35.7549669,30.3176895 35.7549669,30.3176895 C35.7549669,29.7833935 35.4357064,29.3249097 34.7971854,28.9422383 C34.1586645,28.5595668 33.3084989,28.368231 32.2466887,28.368231 C31.0987859,28.368231 30.2450331,28.5812274 29.6854305,29.0072202 C29.1258278,29.433213 28.8460265,30.0505415 28.8460265,30.8592058 L20.3013245,30.8592058 C20.3013245,28.9241877 20.839404,27.299639 21.9155629,25.9855596 C22.9917219,24.6714801 24.437362,23.6787004 26.2524834,23.0072202 C28.0676049,22.3357401 30.0871965,22 32.3112583,22 C34.4205298,22 36.3970751,22.3176895 38.240894,22.9530686 C40.084713,23.5884477 41.580574,24.5595668 42.7284768,25.866426 C43.8763797,27.1732852 44.4503311,28.8447653 44.4503311,30.8808664 C44.4503311,31.1841155 44.4503311,31.4873646 44.4503311,31.7906137 C44.4503311,32.0938628 44.4503311,32.3971119 44.4503311,32.700361 L44.4503311,39.8267148 C44.4503311,40.4620939 44.4646799,41.0758123 44.4933775,41.66787 C44.5220751,42.2599278 44.6081678,42.8086643 44.7516556,43.3140794 C44.9094923,43.8483755 45.1175497,44.3068592 45.3758278,44.6895307 C45.634106,45.0722022 45.8421634,45.3357401 46,45.4801444 L37.5198675,45.4801444 C37.3907285,45.3501805 37.2041943,45.1119134 36.9602649,44.765343 C36.7163355,44.4187726 36.5154525,44.0216606 36.3576159,43.5740072 C36.1423841,42.9241877 35.9881347,42.3140794 35.8948675,41.7436823 C35.8016004,41.1732852 35.7549669,40.4765343 35.7549669,39.6534296 L37.6490066,40.9747292 C37.2615894,42.0288809 36.6051325,42.9314079 35.6796358,43.6823105 C34.7541391,44.433213 33.6708057,45.0072202 32.4296358,45.4043321 C31.1884658,45.801444 29.9006623,46 28.5662252,46 Z M31.1490066,39.8050542 C31.8951435,39.8050542 32.6305188,39.6389892 33.3551325,39.3068592 C34.0797461,38.9747292 34.6859823,38.4223827 35.1738411,37.6498195 C35.6616998,36.8772563 35.9056291,35.8267148 35.9056291,34.4981949 L35.9056291,33.6750903 L38.1225166,35.4729242 C37.1754967,35.8050542 36.1208609,36.0830325 34.9586093,36.3068592 C33.7963576,36.5306859 32.6843267,36.700361 31.6225166,36.8158845 C30.6324503,36.9169675 29.8970751,37.0794224 29.4163907,37.3032491 C28.9357064,37.5270758 28.6953642,37.8844765 28.6953642,38.3754513 C28.6953642,38.866426 28.910596,39.2274368 29.3410596,39.4584838 C29.7715232,39.6895307 30.3741722,39.8050542 31.1490066,39.8050542 Z" id="Shape"></path>
                <path d="M47.4662162,46 L47.4662162,23.2576249 L55.5540541,23.2576249 L55.5540541,46 L47.4662162,46 Z M51.5,20.5807917 C50.2972973,20.5807917 49.2466216,20.2524335 48.347973,19.5957171 C47.4493243,18.9390006 47,18.0038936 47,16.7903958 C47,15.5626217 47.4493243,14.6239455 48.347973,13.9743673 C49.2466216,13.3247891 50.2972973,13 51.5,13 C52.7027027,13 53.7533784,13.3247891 54.652027,13.9743673 C55.5506757,14.6239455 56,15.5626217 56,16.7903958 C56,18.01817 55.5506757,18.9568462 54.652027,19.6064244 C53.7533784,20.2560026 52.7027027,20.5807917 51.5,20.5807917 Z" id="Shape"></path>
                <path d="M69.6983607,46 C67.8087432,46 66.0505464,45.5470946 64.4237705,44.6412838 C62.7969945,43.735473 61.4863388,42.3874554 60.4918033,40.597231 C59.4972678,38.8070065 59,36.5852738 59,33.9320327 C59,31.4214391 59.5114754,29.2959933 60.5344262,27.5556954 C61.557377,25.8153975 62.8857923,24.4959094 64.5196721,23.597231 C66.1535519,22.6985525 67.8797814,22.2492133 69.6983607,22.2492133 C71.5169399,22.2492133 73.1579235,22.727082 74.6213115,23.6828194 C76.0846995,24.6385567 77.2497268,25.940214 78.1163934,27.5877911 C78.9830601,29.2353682 79.4163934,31.1147472 79.4163934,33.2259283 C79.4163934,33.3115167 79.4163934,33.3935389 79.4163934,33.471995 C79.4163934,33.550451 79.4163934,33.6324733 79.4163934,33.7180617 L76.3901639,33.7180617 C76.3901639,33.6752675 76.3901639,33.6289071 76.3901639,33.5789805 C76.3901639,33.5290539 76.3901639,33.4826935 76.3901639,33.4398993 C76.3901639,32.4841619 76.1770492,31.6996014 75.7508197,31.0862177 C75.3245902,30.4728341 74.7882514,30.0127963 74.1418033,29.7061045 C73.4953552,29.3994126 72.8382514,29.2460667 72.1704918,29.2460667 C71.0907104,29.2460667 70.1032787,29.6062513 69.2081967,30.3266205 C68.3131148,31.0469897 67.8655738,32.2487938 67.8655738,33.9320327 C67.8655738,35.6152717 68.3131148,36.8349066 69.2081967,37.5909377 C70.1032787,38.3469687 71.0907104,38.7249843 72.1704918,38.7249843 C72.852459,38.7249843 73.5166667,38.564506 74.1631148,38.2435494 C74.8095628,37.9225928 75.3423497,37.441158 75.7614754,36.7992448 C76.1806011,36.1573317 76.3901639,35.3656388 76.3901639,34.4241661 L79.4163934,34.6381372 C79.4163934,36.7350535 78.9830601,38.642962 78.1163934,40.3618628 C77.2497268,42.0807636 76.0846995,43.4501783 74.6213115,44.470107 C73.1579235,45.4900357 71.5169399,46 69.6983607,46 Z M76.3901639,45.4436753 L76.3901639,12 L81.5431547,12 L81.5431547,17.0361729 C81.5431547,18.1407424 82.4385852,19.0361729 83.5431547,19.0361729 L85,19.0361729 L85,19.0361729 L85,45.4436753 L76.3901639,45.4436753 Z" id="Shape"></path>
                <path d="M101.940514,0 C105.704683,0 108.846549,0.66 111.366114,1.98 C113.885678,3.3 115.772822,5.065 117.027545,7.275 C118.282268,9.485 118.909629,11.93 118.909629,14.61 C118.909629,16.47 118.550414,18.165 117.831984,19.695 C117.113554,21.225 116.182631,22.615 115.039214,23.865 C113.895797,25.115 112.681549,26.24 111.39647,27.24 C110.111391,28.24 108.892083,29.15 107.738548,29.97 C105.775514,31.35 104.156516,32.485 102.881556,33.375 C101.606596,34.265 100.630138,34.94 99.9521828,35.4 C99.5207568,35.6927273 99.1897237,35.9166116 98.9590835,36.0716529 L98.7859779,36.187686 C98.7364713,36.2207438 98.6951602,36.2481818 98.6620443,36.27 L110.797004,36.2710228 C111.059406,38.4897595 111.718022,40.5051243 112.772852,42.3171171 C113.451527,43.4829497 114.269838,44.5253065 115.227785,45.4441875 L84.4249868,45.4436753 L84.4249868,35.22 C84.607124,35.1 85.1788324,34.705 86.1401121,34.035 C87.1013917,33.365 88.265046,32.54 89.631075,31.56 C90.997104,30.58 92.418786,29.55 93.896121,28.47 C95.373456,27.39 96.7293663,26.39 97.9638517,25.47 C99.3804744,24.41 100.751563,23.31 102.077117,22.17 C103.402671,21.03 104.495494,19.825 105.355586,18.555 C106.215679,17.285 106.645725,15.93 106.645725,14.49 C106.645725,12.97 106.266272,11.685 105.507367,10.635 C104.748462,9.585 103.498799,9.06 101.758377,9.06 C100.341754,9.06 99.2337527,9.38 98.4343728,10.02 C97.6349929,10.66 97.0734032,11.545 96.7496037,12.675 C96.4258043,13.805 96.2639045,15.12 96.2639045,16.62 L84,16.62 C84,13.14 84.7133707,10.16 86.1401121,7.68 C87.5668534,5.2 89.6209563,3.3 92.3024205,1.98 C94.9838848,0.66 98.1965826,0 101.940514,0 Z M116.842,36.27 L118.272149,36.27 L118.982,37.113 L116.842912,37.1135135 L116.842,36.27 Z" id="Combined-Shape"></path>
            </g>
            <g id="Group-4" transform="translate(114.000000, 22.000000)" fill="#E3E3DD">
                <path d="M4.63218391,14.3351351 L4.63218391,9.14594595 L17.9950739,9.14594595 L17.3546798,10.2702703 C17.3546798,10.154955 17.3546798,10.0288288 17.3546798,9.89189189 C17.3546798,9.75495495 17.3546798,9.63603604 17.3546798,9.53513514 C17.3546798,9.04504505 17.2159278,8.53693694 16.9384236,8.01081081 C16.6609195,7.48468468 16.2126437,7.04144144 15.5935961,6.68108108 C14.9745484,6.32072072 14.1455939,6.14054054 13.1067323,6.14054054 C12.0963328,6.14054054 11.2495895,6.35675676 10.5665025,6.78918919 C9.88341544,7.22162162 9.37110016,7.85945946 9.02955665,8.7027027 C8.68801314,9.54594595 8.51724138,10.572973 8.51724138,11.7837838 C8.51724138,13.0522523 8.68089765,14.1333333 9.00821018,15.027027 C9.33552271,15.9207207 9.85495348,16.6018018 10.5665025,17.0702703 C11.2780515,17.5387387 12.2101806,17.772973 13.36289,17.772973 C14.045977,17.772973 14.6294472,17.7225225 15.1133005,17.6216216 C15.5971538,17.5207207 15.984948,17.390991 16.2766831,17.2324324 C16.5684182,17.0738739 16.7889984,16.9009009 16.9384236,16.7135135 C17.0878489,16.5261261 17.1767926,16.3459459 17.2052545,16.172973 L25.7011494,16.172973 C25.6015326,17.181982 25.2422003,18.154955 24.6231527,19.0918919 C24.0041051,20.0288288 23.1538041,20.8684685 22.0722496,21.6108108 C20.9906951,22.3531532 19.6885605,22.9369369 18.1658456,23.3621622 C16.6431308,23.7873874 14.9211823,24 13,24 C10.3388068,24 8.03338807,23.4918919 6.08374384,22.4756757 C4.13409962,21.4594595 2.63273125,20.0468468 1.57963875,18.2378378 C0.526546251,16.4288288 0,14.3495495 0,12 C0,9.59279279 0.54077723,7.48828829 1.62233169,5.68648649 C2.70388615,3.88468468 4.22304324,2.48648649 6.17980296,1.49189189 C8.13656267,0.497297297 10.4099617,0 13,0 C15.6754242,0 17.9844007,0.508108108 19.9269294,1.52432432 C21.8694581,2.54054054 23.3672687,3.98198198 24.4203612,5.84864865 C25.4734537,7.71531532 26,9.93153153 26,12.4972973 C26,12.9297297 25.9928845,13.2972973 25.9786535,13.6 C25.9644226,13.9027027 25.9430761,14.1477477 25.9146141,14.3351351 L4.63218391,14.3351351 Z" id="Path"></path>
                <path d="M36.5662252,24 C34.9304636,24 33.4668874,23.7364621 32.1754967,23.2093863 C30.884106,22.6823105 29.8653422,21.9169675 29.1192053,20.9133574 C28.3730684,19.9097473 28,18.6859206 28,17.2418773 C28,15.5379061 28.4842715,14.166065 29.4528146,13.1263538 C30.4213576,12.0866426 31.6625276,11.299639 33.1763245,10.765343 C34.6901214,10.2310469 36.2577263,9.89169675 37.8791391,9.74729242 C40.1892936,9.53068592 41.7461369,9.34296029 42.5496689,9.18411552 C43.3532009,9.02527076 43.7549669,8.74368231 43.7549669,8.33935018 C43.7549669,8.33935018 43.7549669,8.33574007 43.7549669,8.32851986 C43.7549669,8.32129964 43.7549669,8.31768953 43.7549669,8.31768953 C43.7549669,7.7833935 43.4357064,7.32490975 42.7971854,6.94223827 C42.1586645,6.55956679 41.3084989,6.36823105 40.2466887,6.36823105 C39.0987859,6.36823105 38.2450331,6.58122744 37.6854305,7.00722022 C37.1258278,7.433213 36.8460265,8.05054152 36.8460265,8.85920578 L28.3013245,8.85920578 C28.3013245,6.92418773 28.839404,5.29963899 29.9155629,3.98555957 C30.9917219,2.67148014 32.437362,1.67870036 34.2524834,1.00722022 C36.0676049,0.335740072 38.0871965,0 40.3112583,0 C42.4205298,0 44.3970751,0.317689531 46.240894,0.953068592 C48.084713,1.58844765 49.580574,2.55956679 50.7284768,3.86642599 C51.8763797,5.1732852 52.4503311,6.84476534 52.4503311,8.88086643 C52.4503311,9.18411552 52.4503311,9.48736462 52.4503311,9.79061372 C52.4503311,10.0938628 52.4503311,10.3971119 52.4503311,10.700361 L52.4503311,17.8267148 C52.4503311,18.4620939 52.4646799,19.0758123 52.4933775,19.66787 C52.5220751,20.2599278 52.6081678,20.8086643 52.7516556,21.3140794 C52.9094923,21.8483755 53.1175497,22.3068592 53.3758278,22.6895307 C53.634106,23.0722022 53.8421634,23.3357401 54,23.4801444 L45.5198675,23.4801444 C45.3907285,23.3501805 45.2041943,23.1119134 44.9602649,22.765343 C44.7163355,22.4187726 44.5154525,22.0216606 44.3576159,21.5740072 C44.1423841,20.9241877 43.9881347,20.3140794 43.8948675,19.7436823 C43.8016004,19.1732852 43.7549669,18.4765343 43.7549669,17.6534296 L45.6490066,18.9747292 C45.2615894,20.0288809 44.6051325,20.9314079 43.6796358,21.6823105 C42.7541391,22.433213 41.6708057,23.0072202 40.4296358,23.4043321 C39.1884658,23.801444 37.9006623,24 36.5662252,24 Z M39.1490066,17.8050542 C39.8951435,17.8050542 40.6305188,17.6389892 41.3551325,17.3068592 C42.0797461,16.9747292 42.6859823,16.4223827 43.1738411,15.6498195 C43.6616998,14.8772563 43.9056291,13.8267148 43.9056291,12.4981949 L43.9056291,11.6750903 L46.1225166,13.4729242 C45.1754967,13.8050542 44.1208609,14.0830325 42.9586093,14.3068592 C41.7963576,14.5306859 40.6843267,14.700361 39.6225166,14.8158845 C38.6324503,14.9169675 37.8970751,15.0794224 37.4163907,15.3032491 C36.9357064,15.5270758 36.6953642,15.8844765 36.6953642,16.3754513 C36.6953642,16.866426 36.910596,17.2274368 37.3410596,17.4584838 C37.7715232,17.6895307 38.3741722,17.8050542 39.1490066,17.8050542 Z" id="Shape"></path>
                <path d="M57,24 L57,1.46678967 L65.4953271,1.46678967 L65.4953271,9.80535055 L64.0443925,8.6595941 C64.2546729,7.45725707 64.5841121,6.38222632 65.0327103,5.43450185 C65.4813084,4.48677737 66.0455607,3.68404059 66.7254673,3.02629151 C67.4053738,2.36854244 68.1904206,1.86638991 69.0806075,1.51983395 C69.9707944,1.17327798 70.9626168,1 72.0560748,1 C72.9672897,1 73.6577103,1.06011685 74.1273364,1.18035055 C74.5969626,1.30058426 74.8878505,1.39606396 75,1.46678967 L73.8434579,8.93542435 C73.7172897,8.86469865 73.4369159,8.7550738 73.0023364,8.60654982 C72.567757,8.45802583 72.0420561,8.38376384 71.4252336,8.38376384 C70.3317757,8.38376384 69.4065421,8.55704182 68.6495327,8.90359779 C67.8925234,9.25015375 67.2827103,9.71694342 66.8200935,10.3039668 C66.3574766,10.8909902 66.021028,11.5487392 65.8107477,12.277214 C65.6004673,13.0056888 65.4953271,13.7447724 65.4953271,14.4944649 L65.4953271,24 L57,24 Z" id="Path"></path>
                <path d="M93.530648,24 L93.530648,15.2370849 C93.530648,14.7844403 93.530648,14.3317958 93.530648,13.8791513 C93.530648,13.4265068 93.530648,13.0375154 93.530648,12.7121771 C93.530648,11.9341943 93.4640981,11.1915744 93.3309982,10.4843173 C93.1978984,9.77706027 92.8966725,9.19710947 92.4273205,8.74446494 C91.9579685,8.29182042 91.2119089,8.06549815 90.1891419,8.06549815 C89.3064799,8.06549815 88.591944,8.24938499 88.0455342,8.61715867 C87.4991243,8.98493235 87.0998249,9.51537515 86.8476357,10.2084871 C86.5954466,10.901599 86.469352,11.7361624 86.469352,12.7121771 L84.8301226,11.0147601 C84.8301226,8.9495695 85.2434326,7.17081796 86.0700525,5.67850554 C86.8966725,4.18619311 88.0245184,3.03336408 89.4535902,2.22001845 C90.882662,1.40667282 92.4938704,1 94.2872154,1 C96.1926445,1 97.7057793,1.39252768 98.82662,2.17758303 C99.9474606,2.96263838 100.756567,4.04827798 101.25394,5.43450185 C101.751313,6.82072571 102,8.40498155 102,10.1872694 C102,10.9652522 102,11.8563961 102,12.8607011 C102,13.8650062 102,14.9258918 102,16.0433579 L102,20 C102,22.209139 100.209139,24 98,24 L93.530648,24 L93.530648,24 Z M78,24 L78,1.46678967 L86.469352,1.46678967 L86.469352,24 L78,24 Z" id="Shape"></path>
            </g>
        </g>
    </g>
</svg>