<svg width="26px" height="21px" viewBox="0 0 26 21" version="1.1" xmlns="http://www.w3.org/2000/svg" xmlns:xlink="http://www.w3.org/1999/xlink">
    <title>Brand / Social / logo--twitter / 24@2x</title>
    <g id="Cyan-and-Purple" stroke="none" stroke-width="1" fill="none" fill-rule="evenodd">
        <g id="Login" transform="translate(-687.000000, -448.000000)" fill="#86D2D4">
            <g id="Button-/-Large-/-Green-/-01-enabled" transform="translate(592.000000, 422.000000)">
                <g id="Group" transform="translate(90.000000, 18.000000)">
                    <g id="Brand-/-Social-/-logo--twitter-/-24" transform="translate(5.625000, 7.945894)">
                        <path d="M7.785,20.1116064 C11.6234022,20.135748 15.3115879,18.621622 18.0258018,15.9074081 C20.7400157,13.1931942 22.2541416,9.50500854 22.23,5.66660636 C22.23,5.44160636 22.23,5.22785636 22.23,5.00285636 C23.2150418,4.2811562 24.0676425,3.39429921 24.75,2.38160636 C23.8224572,2.78727625 22.8409987,3.05632472 21.83625,3.18035636 C22.9015244,2.54560925 23.7008252,1.54648318 24.08625,0.367856362 C23.0934614,0.963477354 22.0047927,1.38219606 20.86875,1.60535636 C19.295822,-0.0706407118 16.7941734,-0.483109577 14.7664562,0.599217388 C12.738739,1.68154435 11.6891769,3.98952961 12.20625,6.22910636 C8.12452715,6.02875776 4.32054246,4.10222357 1.74375,0.930356362 C0.410580963,3.24423413 1.0991973,6.195447 3.31875,7.68035636 C2.52968894,7.64992398 1.75888428,7.43409868 1.06875,7.05035636 L1.06875,7.10660636 C1.05430171,9.50785856 2.71805961,11.5934142 5.0625,12.1128564 C4.32859276,12.3102491 3.55982868,12.3409997 2.8125,12.2028564 C3.48743193,14.2392526 5.37020751,15.6310652 7.515,15.6791064 C5.7253625,17.1196958 3.50110278,17.9126583 1.20375,17.9291064 C0.800947323,17.9174484 0.399090556,17.8836473 0,17.8278564 C2.32532455,19.3093667 5.02785497,20.0904449 7.785,20.0778564" id="Fill"></path>
                    </g>
                </g>
            </g>
        </g>
    </g>
</svg>